<svg width="117" height="41" viewBox="0 0 117 41" fill="none" xmlns="http://www.w3.org/2000/svg">
<path d="M30.0996 25.6289L32.785 28.3129C32.9102 28.4425 32.9795 28.6162 32.9779 28.7964C32.9764 28.9767 32.9041 29.1491 32.7766 29.2766C32.6491 29.4041 32.4767 29.4764 32.2964 29.4779C32.1162 29.4795 31.9425 29.4102 31.8129 29.285L29.1275 26.5996C27.3727 28.1031 25.1037 28.8685 22.7967 28.7351C20.4898 28.6018 18.3241 27.58 16.7542 25.8844C15.1843 24.1887 14.3322 21.9509 14.3767 19.6405C14.4211 17.3301 15.3587 15.1267 16.9927 13.4927C18.6267 11.8587 20.8301 10.9211 23.1405 10.8767C25.4509 10.8322 27.6887 11.6843 29.3844 13.2542C31.08 14.8241 32.1018 16.9898 32.2351 19.2967C32.3685 21.6037 31.6031 23.8727 30.0996 25.6275V25.6289ZM23.3126 27.3751C25.3183 27.3751 27.2419 26.5783 28.6601 25.1601C30.0783 23.7419 30.8751 21.8183 30.8751 19.8126C30.8751 17.8069 30.0783 15.8834 28.6601 14.4651C27.2419 13.0469 25.3183 12.2501 23.3126 12.2501C21.3069 12.2501 19.3834 13.0469 17.9651 14.4651C16.5469 15.8834 15.7501 17.8069 15.7501 19.8126C15.7501 21.8183 16.5469 23.7419 17.9651 25.1601C19.3834 26.5783 21.3069 27.3751 23.3126 27.3751Z" fill="#707070"/>
<path d="M44.248 14.576H53.144V26H51.624V15.856H45.768V26H44.248V14.576ZM59.1026 26.176C58.4413 26.176 57.86 26.0693 57.3586 25.856C56.868 25.632 56.452 25.328 56.1106 24.944C55.7693 24.5493 55.5133 24.0907 55.3426 23.568C55.172 23.0453 55.0866 22.48 55.0866 21.872C55.0866 21.264 55.172 20.6987 55.3426 20.176C55.5133 19.6427 55.7693 19.184 56.1106 18.8C56.452 18.4053 56.868 18.096 57.3586 17.872C57.86 17.648 58.4413 17.536 59.1026 17.536C59.7533 17.536 60.3293 17.648 60.8306 17.872C61.332 18.096 61.7533 18.4053 62.0946 18.8C62.436 19.184 62.692 19.6427 62.8626 20.176C63.0333 20.6987 63.1186 21.264 63.1186 21.872C63.1186 22.48 63.0333 23.0453 62.8626 23.568C62.692 24.0907 62.436 24.5493 62.0946 24.944C61.7533 25.328 61.332 25.632 60.8306 25.856C60.3293 26.0693 59.7533 26.176 59.1026 26.176ZM59.1026 24.992C59.4546 24.992 59.7853 24.9227 60.0946 24.784C60.4146 24.6453 60.692 24.448 60.9266 24.192C61.1613 23.9253 61.3426 23.6 61.4706 23.216C61.6093 22.8213 61.6786 22.3733 61.6786 21.872C61.6786 21.3707 61.6093 20.928 61.4706 20.544C61.3426 20.1493 61.1613 19.8187 60.9266 19.552C60.692 19.2853 60.4146 19.0827 60.0946 18.944C59.7853 18.8053 59.4546 18.736 59.1026 18.736C58.7506 18.736 58.4146 18.8053 58.0946 18.944C57.7853 19.0827 57.5133 19.2853 57.2786 19.552C57.044 19.8187 56.8573 20.1493 56.7186 20.544C56.5906 20.928 56.5266 21.3707 56.5266 21.872C56.5266 22.3733 56.5906 22.8213 56.7186 23.216C56.8573 23.6 57.044 23.9253 57.2786 24.192C57.5133 24.448 57.7853 24.6453 58.0946 24.784C58.4146 24.9227 58.7506 24.992 59.1026 24.992ZM64.8421 17.728H66.2021V24.48L70.1061 17.728H71.8501V26H70.4901V19.248L66.5861 26H64.8421V17.728ZM77.4486 26.176C76.8193 26.176 76.2593 26.0747 75.7686 25.872C75.2886 25.6693 74.8833 25.3813 74.5526 25.008C74.2326 24.6347 73.9873 24.192 73.8166 23.68C73.6566 23.168 73.5766 22.5973 73.5766 21.968C73.5766 21.3493 73.6566 20.7733 73.8166 20.24C73.9766 19.696 74.2166 19.2267 74.5366 18.832C74.8673 18.4267 75.2726 18.112 75.7526 17.888C76.2433 17.6533 76.8193 17.536 77.4806 17.536C77.95 17.536 78.3873 17.5947 78.7926 17.712C79.2086 17.8187 79.5713 17.9893 79.8806 18.224C80.2006 18.4587 80.462 18.7573 80.6646 19.12C80.8673 19.472 80.9953 19.8933 81.0486 20.384H79.6406C79.534 19.8613 79.31 19.456 78.9686 19.168C78.6273 18.88 78.1686 18.736 77.5926 18.736C77.102 18.736 76.6913 18.8267 76.3606 19.008C76.03 19.1893 75.7633 19.4293 75.5606 19.728C75.3686 20.0267 75.23 20.3733 75.1446 20.768C75.0593 21.152 75.0166 21.552 75.0166 21.968C75.0166 22.352 75.0593 22.7253 75.1446 23.088C75.2406 23.4507 75.3846 23.776 75.5766 24.064C75.7686 24.3413 76.014 24.5653 76.3126 24.736C76.622 24.9067 76.9953 24.992 77.4326 24.992C78.1046 24.992 78.6273 24.816 79.0006 24.464C79.3846 24.112 79.6193 23.616 79.7046 22.976H81.0966C80.9473 24.0107 80.5686 24.8053 79.9606 25.36C79.3526 25.904 78.5153 26.176 77.4486 26.176ZM82.7384 17.728H84.0984V21.68L87.8904 17.728H89.6984L86.0344 21.312L90.1304 26H88.3864L84.9304 22.064L84.0984 22.88V26H82.7384V17.728Z" fill="#707070"/>
</svg>
